<svg version="1.2" xmlns="http://www.w3.org/2000/svg" viewBox="0 0 28 28" width="34" height="34">
	<title>logo-text-svg</title>
	<defs>
		<linearGradient id="g1" x2="1" gradientUnits="userSpaceOnUse" gradientTransform="matrix(.311,.006,-0.005,.234,31.352,1.761)">
			<stop offset="0" stop-color="#26a4ff"/>
			<stop offset="1" stop-color="#0d9aff"/>
		</linearGradient>
		<linearGradient id="g2" x2="1" gradientUnits="userSpaceOnUse" gradientTransform="matrix(.807,.016,-0.016,.807,5.302,5.572)">
			<stop offset="0" stop-color="#26a4ff"/>
			<stop offset="1" stop-color="#0d9aff"/>
		</linearGradient>
		<linearGradient id="g3" x2="1" gradientUnits="userSpaceOnUse" gradientTransform="matrix(.807,.016,-0.016,.807,1.12,17.94)">
			<stop offset="0" stop-color="#26a4ff"/>
			<stop offset="1" stop-color="#0d9aff"/>
		</linearGradient>
		<linearGradient id="g4" x2="1" gradientUnits="userSpaceOnUse" gradientTransform="matrix(.807,.016,-0.016,.807,25.161,21.336)">
			<stop offset="0" stop-color="#26a4ff"/>
			<stop offset="1" stop-color="#0d9aff"/>
		</linearGradient>
		<linearGradient id="g5" x2="1" gradientUnits="userSpaceOnUse" gradientTransform="matrix(.311,.006,-0.008,.414,6.38,14.472)">
			<stop offset="0" stop-color="#26a4ff"/>
			<stop offset="1" stop-color="#0d9aff"/>
		</linearGradient>
		<linearGradient id="g6" x2="1" gradientUnits="userSpaceOnUse" gradientTransform="matrix(.489,.01,-0.01,.489,12.293,1.229)">
			<stop offset="0" stop-color="#26a4ff"/>
			<stop offset="1" stop-color="#0d9aff"/>
		</linearGradient>
		<linearGradient id="g7" x2="1" gradientUnits="userSpaceOnUse" gradientTransform="matrix(-2.437,.404,-0.406,-2.447,4.177,11.317)">
			<stop offset="0" stop-color="#26a4ff"/>
			<stop offset="1" stop-color="#0d9aff"/>
		</linearGradient>
		<linearGradient id="g8" x2="1" gradientUnits="userSpaceOnUse" gradientTransform="matrix(24.941,23.982,-24.144,25.11,1.278,2.04)">
			<stop offset="0" stop-color="#868cff"/>
			<stop offset="1" stop-color="#4318ff"/>
		</linearGradient>
		<linearGradient id="g9" x2="1" gradientUnits="userSpaceOnUse" gradientTransform="matrix(-1.068,-3.014,17.15,-6.077,1.183,24.803)">
			<stop offset="0" stop-color="#3f5fff" stop-opacity="1"/>
			<stop offset="1" stop-color="#3f5fff" stop-opacity="0"/>
		</linearGradient>
		<filter x="-50%" y="-50%" width="200%" height="200%" id="f1"> <feGaussianBlur stdDeviation=".1"/> </filter>
		<linearGradient id="g10" x2="1" gradientUnits="userSpaceOnUse" gradientTransform="matrix(-1.068,-3.014,17.15,-6.077,1.183,24.802)">
			<stop offset="0" stop-color="#1da0ff" stop-opacity="1"/>
			<stop offset="1" stop-color="#199fff" stop-opacity=".13"/>
		</linearGradient>
		<linearGradient id="g11" x2="1" gradientUnits="userSpaceOnUse" gradientTransform="matrix(-3.381,-0.396,.417,-3.562,25.733,5.656)">
			<stop offset="0" stop-color="#26a4ff"/>
			<stop offset="1" stop-color="#0d9aff"/>
		</linearGradient>
	</defs>
	<style>
		.s0 { fill: url(#g1) } 
		.s1 { fill: url(#g2) } 
		.s2 { fill: url(#g3) } 
		.s3 { fill: url(#g4) } 
		.s4 { fill: url(#g5) } 
		.s5 { fill: url(#g6) } 
		.s6 { fill: url(#g7) } 
		.s7 { fill: url(#g8) } 
		.s8 { fill: none;stroke: url(#g9);stroke-width: .5 } 
		.s9 { mix-blend-mode: screen;filter: url(#f1);fill: none;stroke: url(#g10);stroke-width: .5 } 
		.s10 { fill: url(#g11) } 
		.s11 { fill: #5a3fff } 
		.s12 { fill: #000000 } 
	</style>
	<g>
		<path class="s0" d="m31.5 1.9c0.1 0 0.2 0 0.2-0.1 0-0.1-0.1-0.2-0.2-0.2-0.1 0-0.2 0.1-0.2 0.2 0 0.1 0.1 0.1 0.2 0.1z"/>
	</g>
	<g>
		<path class="s1" d="m5.7 6c0.2 0 0.4-0.2 0.4-0.4 0-0.2-0.2-0.4-0.4-0.4-0.2 0-0.4 0.2-0.4 0.4 0 0.2 0.2 0.4 0.4 0.4z"/>
	</g>
	<g>
		<path class="s2" d="m1.5 18.4c0.2 0 0.4-0.2 0.4-0.4 0-0.2-0.2-0.4-0.4-0.4-0.2 0-0.4 0.2-0.4 0.4 0 0.2 0.2 0.4 0.4 0.4z"/>
	</g>
	<g>
		<path class="s3" d="m25.5 21.8c0.3 0 0.4-0.2 0.4-0.4 0-0.3-0.1-0.4-0.4-0.4-0.2 0-0.4 0.1-0.4 0.4 0 0.2 0.2 0.4 0.4 0.4z"/>
	</g>
	<g>
		<path class="s4" d="m6.5 14.7c0.1 0 0.2-0.1 0.2-0.2 0-0.1-0.1-0.2-0.2-0.2-0.1 0-0.1 0.1-0.1 0.2 0 0.1 0 0.2 0.1 0.2z"/>
	</g>
	<g>
		<path class="s5" d="m12.5 1.5c0.2 0 0.3-0.1 0.3-0.2q0-0.3-0.3-0.3c-0.1 0-0.2 0.1-0.2 0.3 0 0.1 0.1 0.2 0.2 0.2z"/>
	</g>
	<g>
		<path class="s6" d="m3.2 12.9q-0.1 0-0.2-0.1c-0.2-0.8-0.3-0.9-1-0.8-0.1 0-0.2-0.1-0.2-0.2q0-0.1 0.1-0.2c0.7-0.2 0.8-0.3 0.8-1.1q0-0.1 0.2-0.1 0.1-0.1 0.1 0.1c0.3 0.7 0.4 0.8 1.1 0.8q0.1 0 0.2 0.1 0 0.2-0.2 0.2c-0.6 0.2-0.7 0.3-0.7 1.1q0 0.2-0.2 0.2z"/>
	</g>
	<path class="s7" d="m16.6 6.2c-0.2 0.1-0.3 0.3-0.3 0.5 0 0.3 0.1 0.5 0.3 0.5 1.7 0.7 3 2.1 3.7 3.8 0.1 0.3 0.3 0.4 0.5 0.4 0.2 0 0.4-0.1 0.5-0.4 0.6-1.7 1.9-3.1 3.6-3.8 0.2 0 0.4-0.2 0.4-0.5 0-0.2-0.2-0.4-0.4-0.5-1.7-0.7-3-2-3.6-3.8-0.1-0.2-0.3-0.4-0.5-0.4-0.2 0-0.4 0.2-0.5 0.4-0.7 1.8-2 3.1-3.7 3.8zm-5.7-0.6c-0.1-0.3-0.4-0.4-0.7-0.4-0.3 0-0.5 0.1-0.7 0.4-1.6 3.6-4.3 6.5-7.8 8.1-0.3 0.2-0.4 0.4-0.4 0.8 0 0.3 0.1 0.5 0.4 0.7 3.5 1.6 6.2 4.5 7.8 8.1 0.2 0.3 0.4 0.4 0.7 0.4 0.3 0 0.6-0.1 0.7-0.4 1.6-3.6 4.4-6.5 7.8-8.1 0.3-0.2 0.4-0.5 0.4-0.8 0-0.3-0.1-0.5-0.4-0.7-3.4-1.6-6.2-4.5-7.8-8.1zm9.4 12.4c-0.7 1.8-2 3.1-3.7 3.8-0.2 0.1-0.3 0.3-0.3 0.5 0 0.3 0.1 0.5 0.3 0.5 1.7 0.7 3 2.1 3.7 3.8 0.1 0.3 0.3 0.4 0.5 0.4 0.2 0 0.4-0.1 0.5-0.4 0.6-1.7 1.9-3.1 3.6-3.8 0.2 0 0.4-0.2 0.4-0.5 0-0.2-0.2-0.4-0.4-0.5-1.7-0.7-3-2-3.6-3.8-0.1-0.2-0.3-0.4-0.5-0.4-0.2 0-0.4 0.2-0.5 0.4z"/>
	<path fill-rule="evenodd" class="s8" d="m13 16.1c-7.2 2.6-12.7 5.7-12.2 7 0.4 1.2 6.5 0.2 13.7-2.4 7.2-2.6 12.6-5.7 12.2-7-0.4-1.3-6.6-0.2-13.7 2.4z"/>
	<g>
		<path fill-rule="evenodd" class="s9" d="m13 16.1c-7.2 2.6-12.7 5.7-12.2 7 0.4 1.2 6.5 0.2 13.7-2.4 7.2-2.6 12.6-5.7 12.2-7-0.4-1.3-6.6-0.2-13.7 2.4z"/>
	</g>
	<g>
		<path class="s10" d="m23.9 7.4c-0.1-0.1-0.2-0.2-0.2-0.3 0-1.1-0.1-1.2-1.1-1.5-0.1 0-0.2-0.1-0.2-0.3 0-0.1 0.1-0.2 0.3-0.2 1 0.1 1.1-0.1 1.4-1.1 0-0.1 0.1-0.2 0.3-0.2 0.1 0.1 0.1 0.2 0.1 0.3 0.1 1.1 0.2 1.2 1.1 1.5 0.2 0 0.2 0.1 0.2 0.3 0 0.1-0.1 0.2-0.2 0.2-1 0-1.2 0.1-1.5 1.1 0 0.1-0.1 0.2-0.2 0.2z"/>
	</g>
	<path id="PhotoAI" fill-rule="evenodd" class="s11" d="m37.9 23h-3.5v-16.1h7.6q1.2 0 2.1 0.4 0.8 0.4 1.5 1.1 0.6 0.6 1 1.6 0.3 0.9 0.3 2.1 0 1.1-0.3 2.1-0.4 0.9-1 1.6-0.7 0.6-1.5 1-0.9 0.4-2.1 0.4h-4.1zm0-13v4.2h3.7q0.8 0 1.2-0.4 0.5-0.4 0.5-1.2v-1q0-0.8-0.5-1.2-0.4-0.4-1.2-0.4zm11.4 13v-17h3.4v7h0.2q0.3-1 1.1-1.7 0.8-0.6 2.2-0.6 1.9 0 2.8 1.2 1 1.2 1 3.5v7.6h-3.4v-7.3q0-1.2-0.4-1.7-0.3-0.6-1.3-0.6-0.4 0-0.8 0.1-0.4 0.1-0.7 0.4-0.3 0.2-0.5 0.5-0.2 0.3-0.2 0.8v7.8zm18.6 0.3q-1.3 0-2.4-0.5-1-0.4-1.7-1.2-0.7-0.8-1.1-2-0.4-1.2-0.4-2.6 0-1.5 0.4-2.7 0.4-1.1 1.1-1.9 0.7-0.9 1.7-1.3 1.1-0.4 2.4-0.4 1.4 0 2.4 0.4 1.1 0.4 1.8 1.3 0.7 0.8 1.1 1.9 0.4 1.2 0.4 2.7 0 1.4-0.4 2.6-0.4 1.2-1.1 2-0.7 0.8-1.8 1.2-1 0.5-2.4 0.5zm0-2.7q1 0 1.6-0.6 0.5-0.7 0.5-1.8v-2.5q0-1.1-0.5-1.7-0.6-0.7-1.6-0.7-1 0-1.5 0.7-0.6 0.6-0.6 1.7v2.5q0 1.1 0.6 1.8 0.5 0.6 1.5 0.6zm14.2 2.4h-2q-1.8 0-2.7-0.9-0.9-0.9-0.9-2.6v-5.9h-1.7v-2.7h0.9q0.7 0 0.9-0.3 0.3-0.3 0.3-1v-1.9h3v3.2h2.4v2.7h-2.4v6.8h2.2zm7.4 0.2q-1.4 0-2.4-0.4-1-0.4-1.8-1.3-0.7-0.8-1.1-2-0.4-1.1-0.4-2.6 0-1.4 0.4-2.6 0.4-1.2 1.1-2 0.8-0.8 1.8-1.3 1-0.4 2.4-0.4 1.3 0 2.4 0.4 1 0.5 1.7 1.3 0.8 0.8 1.2 2 0.3 1.2 0.3 2.6 0 1.5-0.3 2.6-0.4 1.2-1.2 2-0.7 0.9-1.7 1.3-1.1 0.4-2.4 0.4zm0-2.7q1 0 1.5-0.6 0.6-0.6 0.6-1.7v-2.5q0-1.2-0.6-1.8-0.5-0.6-1.5-0.6-1 0-1.6 0.6-0.5 0.6-0.5 1.8v2.5q0 1.1 0.5 1.7 0.6 0.6 1.6 0.6zm21.8 2.5h-3.7l-1.1-3.9h-5.4l-1.1 3.9h-3.6l5.3-16.1h4.3zm-5.6-6.8l-1.8-6.1h-0.1l-1.8 6.1zm14.9 6.8h-7.6v-2.8h2v-10.5h-2v-2.7h7.6v2.7h-2.1v10.5h2.1z"/>
	<path id="Shape 1" class="s12" d=""/>
</svg>